Coordinates
version=1
nRows=12
nColumns=24
inDegrees=yes

Units are S.I. units (second, meters, Newtons, ...)
Angles are in degrees.

endheader
time	pelvis_tilt	pelvis_list	pelvis_rotation	pelvis_tx	pelvis_ty	pelvis_tz	hip_flexion_r	hip_adduction_r	hip_rotation_r	knee_angle_r	ankle_angle_r	subtalar_angle_r	mtp_angle_r	hip_flexion_l	hip_adduction_l	hip_rotation_l	knee_angle_l	ankle_angle_l	subtalar_angle_l	mtp_angle_l	lumbar_extension	lumbar_bending	lumbar_rotation
      5.50000000	     12.39297977	     -9.59536015	     -1.22507986	      1.53003886	      0.91469850	     -0.25771176	    -30.66195652	     12.18034933	      3.15004934	     -8.98203307	     24.43970025	      8.33725458	      0.00000000	     10.57726264	     -7.51763255	      6.22722385	     -2.19344577	     11.33051717	      1.86728768	      0.00000000	    -29.34519088	      8.07166477	      6.91691581
      5.50500000	     12.36344937	     -9.31428741	     -1.39763462	      1.53750944	      0.91420841	     -0.25755213	    -30.76883261	     11.73656780	      2.96380538	     -9.70619954	     24.35085195	      8.96236518	      0.00000000	     10.54759858	     -7.16283554	      6.12712409	     -2.39031485	     11.14824025	      1.49668559	      0.00000000	    -29.23378558	      7.69031841	      6.90317148
      5.51000000	     12.49072953	     -8.97021709	     -1.47520490	      1.54492901	      0.91388485	     -0.25754632	    -31.00369932	     11.24993380	      2.58623872	    -10.46837032	     24.26016936	      9.76906384	      0.00000000	     10.37564741	     -6.71605359	      6.09697952	     -2.69194245	     10.99676607	      1.08172137	      0.00000000	    -29.29821957	      7.27434526	      6.75884404
      5.51500000	     12.44480511	     -8.58095251	     -1.64291112	      1.55247843	      0.91349754	     -0.25736578	    -31.02806859	     10.70916311	      2.36112945	    -11.30040192	     24.11604689	     10.36197658	      0.00000000	     10.37612953	     -6.24096066	      5.99114333	     -3.09707676	     10.84912610	      0.68383367	      0.00000000	    -29.14529905	      6.77138004	      6.65431683
      5.52000000	     12.45971835	     -8.14986064	     -1.76319937	      1.56001648	      0.91320751	     -0.25732398	    -31.08487142	     10.12684632	      1.99335533	    -12.17129525	     23.94040533	     11.16037488	      0.00000000	     10.33459587	     -5.70169544	      5.93422510	     -3.60907101	     10.70325443	      0.22934032	      0.00000000	    -29.05980499	      6.25299364	      6.52543898
      5.52500000	     12.64498089	     -7.64877225	     -1.73397966	      1.56754620	      0.91307167	     -0.25752625	    -31.30431972	      9.52008515	      1.40892156	    -13.03421882	     23.68842558	     12.07076515	      0.00000000	     10.14550015	     -5.04859556	      6.02768771	     -4.21586576	     10.55534338	     -0.29415402	      0.00000000	    -29.15697332	      5.72440439	      6.23019154
      5.53000000	     12.59546628	     -7.12616813	     -1.88715544	      1.57521021	      0.91283594	     -0.25739124	    -31.23366747	      8.85082321	      1.10846143	    -14.01760550	     23.41319621	     12.69641355	      0.00000000	     10.16753481	     -4.42037830	      5.92615671	     -4.87522666	     10.41875764	     -0.70905593	      0.00000000	    -28.97052758	      5.08731088	      6.05580024
      5.53500000	     12.59893383	     -6.58264016	     -1.98466008	      1.58285698	      0.91267690	     -0.25744870	    -31.18626809	      8.15604633	      0.64705142	    -15.04322670	     23.08676270	     13.55607907	      0.00000000	     10.15236654	     -3.74576549	      5.89499612	     -5.61091411	     10.25997255	     -1.19531343	      0.00000000	    -28.84774063	      4.47007822	      5.85686404
      5.54000000	     12.74428361	     -6.00208452	     -1.91216539	      1.59046757	      0.91262834	     -0.25777586	    -31.27222931	      7.48099746	     -0.02910819	    -16.06860563	     22.65281739	     14.52351282	      0.00000000	     10.01965916	     -2.98804768	      6.06306481	     -6.41517525	     10.07032779	     -1.77451578	      0.00000000	    -28.88373307	      3.88928196	      5.49060951
      5.54500000	     12.69226198	     -5.38369283	     -2.03202090	      1.59824058	      0.91249531	     -0.25773658	    -31.10956949	      6.71939762	     -0.40403417	    -17.20265397	     22.21636582	     15.19154200	      0.00000000	     10.04902795	     -2.24549335	      5.97876819	     -7.23182775	      9.92827840	     -2.17593928	      0.00000000	    -28.67220482	      3.16739408	      5.25719870
      5.55000000	     12.68501457	     -4.78223056	     -2.09622536	      1.60595660	      0.91243255	     -0.25789004	    -30.95649384	      5.96554182	     -0.91680953	    -18.39011489	     21.68795479	     16.08413375	      0.00000000	     10.04167830	     -1.49813292	      5.98045507	     -8.08738135	      9.74606332	     -2.64833139	      0.00000000	    -28.52495151	      2.50680128	      5.01859475
      5.55500000	     12.68206230	     -4.15717069	     -2.13144879	      1.61370936	      0.91239281	     -0.25806746	    -30.78208424	      5.20231173	     -1.43312181	    -19.61894752	     21.08466853	     16.90656336	      0.00000000	     10.02426306	     -0.72178843	      6.01615598	     -8.96050090	      9.56547130	     -3.10200022	      0.00000000	    -28.37361982	      1.83282309	      4.73463033
